<?xml version="1.0" encoding="UTF-8"?> <svg xmlns="http://www.w3.org/2000/svg" xmlns:xlink="http://www.w3.org/1999/xlink" width="2112px" height="276px" viewBox="0 0 2112 276"> <!-- Generator: Sketch 52.4 (67378) - http://www.bohemiancoding.com/sketch --> <title>Group</title> <desc>Created with Sketch.</desc> <g id="Page-1" stroke="none" stroke-width="1" fill="none" fill-rule="evenodd"> <g id="hrscanner_sign-text_horizontal"> <g id="Group" transform="translate(0.000000, 24.000000)"> <g id="Group-7" transform="translate(0.000000, 4.000000)"> <polyline id="Stroke-1" stroke="#BAAC9F" stroke-width="86" points="135.503 159.007 86.135 151.334 82.709 139.042 95.713 142.803 101.961 145.68 103.379 151.334 101.961 174.11 104.542 174.11 116.926 187.792 153.959 205.129 121.202 192.71 142.151 60.942 127.112 29.585 109.557 37.846 101.961 66.759 138.536 186.624 92.434 37.846"></polyline> <path d="M142.184,187.033 L4.958,16.852 L80.3,104.257 L74.072,52.12 L174.833,191.025 L31.64,109.642 L33.193,47.123 L37.508,7.975 L71.427,0.785 L118.264,17.846 L96.783,28.25 L116.205,49.288 L121.747,156.841 L23.661,126.799 L108.661,172.406 L176.471,220.275 L123.195,184.936 L125.582,231.252 L172.735,245.882 L114.487,223.148 L82.579,200.472 L77.095,199.802 L70.795,167.777 L65.468,159.367 L51.017,153.653 L21.85,144.927 L34.157,163.3 L142.184,187.033 Z M137.615,187.033 L0.389,16.852 L75.731,104.257 L69.503,52.12 L170.264,191.025 L27.071,109.642 L28.624,47.123 L32.939,7.975 L66.858,0.785 L113.695,17.846 L92.214,28.25 L111.636,49.288 L117.178,156.841 L19.092,126.799 L104.092,172.406 L171.903,220.275 L118.626,184.936 L121.013,231.252 L168.167,245.882 L109.918,223.148 L78.01,200.472 L72.526,199.802 L66.226,167.777 L60.899,159.367 L46.448,153.653 L17.282,144.927 L29.588,163.3 L137.615,187.033 Z M147.667,187.033 L10.441,16.852 L85.783,104.257 L79.555,52.12 L180.315,191.025 L37.123,109.642 L38.676,47.123 L42.991,7.975 L76.909,0.785 L123.747,17.846 L102.265,28.25 L121.688,49.288 L127.23,156.841 L29.144,126.799 L114.143,172.406 L181.955,220.275 L128.678,184.936 L131.064,231.252 L178.217,245.882 L119.97,223.148 L88.062,200.472 L82.578,199.802 L76.277,167.777 L70.951,159.367 L56.5,153.653 L27.333,144.927 L39.64,163.3 L147.667,187.033 Z M155.891,187.033 L18.665,16.852 L94.007,104.257 L87.779,52.12 L188.54,191.025 L45.347,109.642 L46.9,47.123 L51.215,7.975 L85.133,0.785 L131.971,17.846 L110.49,28.25 L129.912,49.288 L135.454,156.841 L37.368,126.799 L122.367,172.406 L190.178,220.275 L136.902,184.936 L139.289,231.252 L186.442,245.882 L128.194,223.148 L96.286,200.472 L90.802,199.802 L84.501,167.777 L79.175,159.367 L64.724,153.653 L35.557,144.927 L47.864,163.3 L155.891,187.033 Z M150.408,187.033 L13.182,16.852 L88.524,104.257 L82.296,52.12 L183.057,191.025 L39.864,109.642 L41.417,47.123 L45.732,7.975 L79.651,0.785 L126.488,17.846 L105.007,28.25 L124.429,49.288 L129.971,156.841 L31.885,126.799 L116.885,172.406 L184.696,220.275 L131.419,184.936 L133.806,231.252 L180.959,245.882 L122.711,223.148 L90.803,200.472 L85.319,199.802 L79.019,167.777 L73.692,159.367 L59.241,153.653 L30.075,144.927 L42.381,163.3 L150.408,187.033 Z" id="Stroke-3" stroke="#000000"></path> <path d="M162.288,187.033 L25.061,16.852 L100.403,104.257 L94.176,52.12 L194.936,191.025 L51.743,109.642 L53.296,47.123 L57.611,7.975 L91.53,0.785 L138.367,17.846 L116.886,28.25 L136.308,49.288 L141.851,156.841 L43.765,126.799 L128.764,172.406 L196.575,220.275 L143.298,184.936 L145.685,231.252 L192.838,245.882 L134.59,223.148 L102.683,200.472 L97.199,199.802 L90.898,167.777 L85.572,159.367 L71.121,153.653 L41.954,144.927 L54.26,163.3 L162.288,187.033 Z M169.598,187.033 L32.372,16.852 L107.714,104.257 L101.486,52.12 L202.247,191.025 L59.054,109.642 L60.606,47.123 L64.921,7.975 L98.84,0.785 L145.678,17.846 L124.196,28.25 L143.619,49.288 L149.161,156.841 L51.075,126.799 L136.074,172.406 L203.885,220.275 L150.608,184.936 L152.996,231.252 L200.149,245.882 L141.9,223.148 L109.993,200.472 L104.509,199.802 L98.208,167.777 L92.882,159.367 L78.431,153.653 L49.264,144.927 L61.571,163.3 L169.598,187.033 Z M165.029,187.033 L27.803,16.852 L103.145,104.257 L96.917,52.12 L197.678,191.025 L54.484,109.642 L56.038,47.123 L60.352,7.975 L94.271,0.785 L141.108,17.846 L119.627,28.25 L139.049,49.288 L144.592,156.841 L46.506,126.799 L131.505,172.406 L199.317,220.275 L146.04,184.936 L148.426,231.252 L195.581,245.882 L137.332,223.148 L105.424,200.472 L99.94,199.802 L93.64,167.777 L88.313,159.367 L73.862,153.653 L44.695,144.927 L57.001,163.3 L165.029,187.033 Z M173.252,187.033 L36.027,16.852 L111.369,104.257 L105.142,52.12 L205.902,191.025 L62.708,109.642 L64.262,47.123 L68.577,7.975 L102.496,0.785 L149.333,17.846 L127.852,28.25 L147.273,49.288 L152.816,156.841 L54.73,126.799 L139.729,172.406 L207.541,220.275 L154.264,184.936 L156.65,231.252 L203.804,245.882 L145.556,223.148 L113.648,200.472 L108.165,199.802 L101.864,167.777 L96.538,159.367 L82.086,153.653 L52.919,144.927 L65.226,163.3 L173.252,187.033 Z M181.477,187.033 L44.251,16.852 L119.593,104.257 L113.366,52.12 L214.125,191.025 L70.933,109.642 L72.486,47.123 L76.801,7.975 L110.72,0.785 L157.557,17.846 L136.076,28.25 L155.498,49.288 L161.04,156.841 L62.954,126.799 L147.954,172.406 L215.764,220.275 L162.488,184.936 L164.875,231.252 L212.028,245.882 L153.78,223.148 L121.873,200.472 L116.389,199.802 L110.088,167.777 L104.761,159.367 L90.31,153.653 L61.144,144.927 L73.45,163.3 L181.477,187.033 Z" id="Stroke-4" stroke="#000000"></path> <path d="M177.823,187.033 L40.596,16.852 L115.938,104.257 L109.71,52.12 L210.471,191.025 L67.278,109.642 L68.831,47.123 L73.145,7.975 L107.064,0.785 L153.902,17.846 L132.42,28.25 L151.843,49.288 L157.385,156.841 L59.299,126.799 L144.298,172.406 L212.11,220.275 L158.833,184.936 L161.22,231.252 L208.374,245.882 L150.125,223.148 L118.217,200.472 L112.733,199.802 L106.433,167.777 L101.106,159.367 L86.655,153.653 L57.488,144.927 L69.795,163.3 L177.823,187.033 Z M186.046,187.033 L48.82,16.852 L124.162,104.257 L117.935,52.12 L218.695,191.025 L75.502,109.642 L77.055,47.123 L81.37,7.975 L115.289,0.785 L162.126,17.846 L140.645,28.25 L160.067,49.288 L165.609,156.841 L67.523,126.799 L152.522,172.406 L220.333,220.275 L167.057,184.936 L169.444,231.252 L216.597,245.882 L158.349,223.148 L126.441,200.472 L120.958,199.802 L114.657,167.777 L109.331,159.367 L94.879,153.653 L65.712,144.927 L78.019,163.3 L186.046,187.033 Z" id="Stroke-5" stroke="#000000"></path> <path d="M208.163,154.326 C205.63,111.942 239.406,119.788 275.971,138.442 C279.913,140.454 265.048,140.163 260.79,138.885 C256.337,137.548 251.387,138.044 246.696,138.634 C244.52,138.907 242.141,139.755 240.645,141.419 C239.375,142.833 239.042,145.058 239.272,146.896 C240.233,154.589 244.561,161.738 244.163,169.542 C244.058,171.581 239.84,167.761 238.145,168.952 C233.286,172.368 230.616,178.263 226.153,182.202 C217.15,190.147 208.381,198.772 197.886,204.483 C191.469,207.975 225.859,192.868 222.012,186.964 C194.894,145.352 189.08,97.328 201.724,59.358 C205.969,46.608 199.202,28.753 209.495,19.991 C216.116,14.355 220.6,32.662 224.193,40.23 C227.478,47.15 234.044,56.732 240.645,59.358 C295.285,81.098 191.135,115.614 205.225,181.071" id="Stroke-6" stroke="#F7F701" stroke-width="86"></path> </g> <path d="M322.918,167.962 C314.551,151.524 306.185,135.085 297.819,118.648 L322.918,167.962 Z M311.944,140.458 C299.802,153.555 287.661,166.651 275.52,179.749 L311.944,140.458 Z M294.801,175.951 C285.991,181.033 277.18,186.115 268.37,191.197 L294.801,175.951 Z M275.121,165.407 C268.963,166.683 262.805,167.957 256.647,169.232 L275.121,165.407 Z M266.506,156.044 C262.065,157.472 257.622,158.901 253.18,160.329 L266.506,156.044 Z M262.003,139.034 C230.737,147.862 215.815,159.551 184.548,168.38 L262.003,139.034 Z M270.651,117.271 C252.731,124.053 234.812,130.835 216.893,137.617 L270.651,117.271 Z M263.393,130.937 C261.991,122.317 260.589,113.696 259.188,105.076 L263.393,130.937 Z M232.711,111.815 C220.319,115.22 195.008,122.079 182.616,125.484 L232.711,111.815 Z M221.61,92.657 C206.786,97.106 191.961,101.555 177.138,106.003 L221.61,92.657 Z M221.557,71.018 C197.98,72.678 190.174,74.573 166.598,76.233 L221.557,71.018 Z M219.545,54.549 C210.674,38.788 201.803,23.027 192.931,7.266 L219.545,54.549 Z M218.672,0.214 C227.989,12.972 250.168,54.117 246.622,38.488 L238.827,44.814 C237.42,38.619 241.054,32.055 242.168,25.675 L218.672,0.214 Z M194.2,212.097 C199.647,194.002 205.094,175.908 210.542,157.815 L194.2,212.097 Z M221.35,183.909 C209.845,184.302 198.34,184.694 186.834,185.087 L221.35,183.909 Z" id="Stroke-8" stroke="#000000" stroke-width="8" stroke-linecap="round" stroke-linejoin="round"></path> <path d="M2010.54,111.525 L2044.53,111.525 C2053.48,111.525 2058.23,110.998 2062.44,109.154 C2071.14,105.203 2077.46,96.508 2077.46,84.125 C2077.46,72.009 2071.93,63.841 2063.24,59.627 C2058.5,57.256 2053.75,56.465 2044.53,56.465 L2010.54,56.465 L2010.54,111.525 Z M1985.26,208.474 L1985.26,31.437 L2046.11,31.437 C2059.02,31.437 2065.34,32.49 2071.67,34.601 C2092.21,41.713 2105.12,59.363 2105.12,84.125 C2105.12,108.628 2091.43,125.755 2071.93,132.604 L2111.97,208.474 L2082.2,208.474 L2044.79,136.291 L2010.54,136.291 L2010.54,208.474 L1985.26,208.474 Z M1811.91,208.474 L1811.91,31.437 L1909.38,31.437 L1910.43,55.939 L1837.2,55.939 L1837.2,106.257 L1906.75,106.257 L1906.75,130.753 L1837.2,130.753 L1837.2,183.709 L1917.28,183.709 L1913.07,208.474 L1811.91,208.474 Z M1589.29,208.474 L1589.29,31.437 L1623.55,31.437 L1705.21,177.124 L1706.26,177.124 C1704.95,155.255 1704.42,147.355 1704.42,132.334 L1704.42,31.437 L1727.34,31.437 L1727.34,208.474 L1695.46,208.474 L1611.95,59.89 L1611.42,59.89 C1612.48,78.067 1612.48,88.87 1612.48,104.94 L1612.48,208.474 L1589.29,208.474 Z M1366.68,208.474 L1366.68,31.437 L1400.93,31.437 L1482.6,177.124 L1483.65,177.124 C1482.33,155.255 1481.81,147.355 1481.81,132.334 L1481.81,31.437 L1504.72,31.437 L1504.72,208.474 L1472.84,208.474 L1389.34,59.89 L1388.81,59.89 C1389.86,78.067 1389.86,88.87 1389.86,104.94 L1389.86,208.474 L1366.68,208.474 Z M1231.54,57.52 L1209.92,132.604 L1253.92,132.604 L1232.59,57.52 L1231.54,57.52 Z M1160.93,208.474 L1216.52,31.437 L1249.71,31.437 L1303.19,208.474 L1276.06,208.474 L1260.51,156.052 L1203.08,156.052 L1187.01,208.474 L1160.93,208.474 Z M1056.87,211.636 C1013.14,211.636 991.794,186.875 990.741,148.407 C990.213,130.228 990.213,113.105 990.741,95.191 C991.794,56.729 1015.77,29.33 1058.71,29.33 C1086.11,29.33 1105.61,40.922 1117.2,58.574 L1097.44,74.644 C1086.37,60.68 1074.51,53.038 1056.34,53.038 C1033.68,53.038 1018.67,68.058 1017.61,96.245 C1017.09,110.998 1017.09,129.442 1017.61,144.456 C1018.4,172.646 1033.95,188.186 1059.5,188.186 C1077.67,188.186 1090.06,180.285 1100.87,167.904 L1116.41,184.499 C1103.23,201.098 1083.48,211.636 1056.87,211.636 Z M869.295,211.899 C846.374,211.899 825.559,202.679 812.123,183.972 L829.774,166.588 C841.106,181.601 855.33,188.982 871.929,188.982 C886.153,188.982 897.48,182.127 897.48,165.265 C897.48,151.04 889.315,145.773 880.886,140.77 C867.446,132.604 853.221,127.336 843.212,121.275 C826.085,110.998 816.604,98.352 816.604,78.067 C816.604,49.878 836.623,29.33 868.77,29.33 C894.845,29.33 912.236,42.239 921.981,59.1 L901.43,74.38 C893.265,60.68 882.993,53.038 867.973,52.774 C852.958,52.512 842.944,60.944 842.944,75.434 C842.944,87.816 850.325,93.61 858.491,98.616 C867.446,104.15 887.208,113.105 895.372,117.847 C909.86,126.281 924.088,136.817 924.088,161.577 C924.088,190.293 904.333,211.899 869.295,211.899 Z M653.002,111.525 L686.987,111.525 C695.943,111.525 700.688,110.998 704.903,109.154 C713.594,105.203 719.918,96.508 719.918,84.125 C719.918,72.009 714.383,63.841 705.692,59.627 C700.951,57.256 696.207,56.465 686.987,56.465 L653.002,56.465 L653.002,111.525 Z M627.71,208.474 L627.71,31.437 L688.567,31.437 C701.477,31.437 707.798,32.49 714.121,34.601 C734.672,41.713 747.579,59.363 747.579,84.125 C747.579,108.628 733.881,125.755 714.383,132.604 L754.43,208.474 L724.661,208.474 L687.251,136.291 L653.002,136.291 L653.002,208.474 L627.71,208.474 Z M405.1,208.474 L405.1,31.437 L430.388,31.437 L430.388,106.257 L517.853,106.257 L517.853,31.437 L543.144,31.437 L543.144,208.474 L517.853,208.474 L517.853,129.442 L430.388,129.442 L430.388,208.474 L405.1,208.474 Z" id="Fill-9" fill="#000000"></path> </g> </g> </g> </svg> 