<?xml version="1.0" encoding="UTF-8"?> <svg xmlns="http://www.w3.org/2000/svg" width="315.03" height="60.41" viewBox="0 0 315.03 60.41"> <path d="M306 13.07c5.81 0 9 4.25 9 9.62 0 .59-.12 1.86-.12 1.86h-14a5.83 5.83 0 0 0 6.12 5.45 9.2 9.2 0 0 0 5.68-2.26l2.11 3.5a12.33 12.33 0 0 1-8.15 3.06c-6.72 0-10.89-4.85-10.89-10.62 0-6.24 4.25-10.61 10.25-10.61zm3.82 8a3.94 3.94 0 0 0-3.82-4.07 4.85 4.85 0 0 0-5 4.1zM115.39 13.07c5.8 0 9 4.25 9 9.62 0 .59-.12 1.86-.12 1.86h-14a5.83 5.83 0 0 0 6.07 5.45 9.25 9.25 0 0 0 5.66-2.26l2.1 3.5a12.32 12.32 0 0 1-8.1 3.06c-6.72 0-10.9-4.85-10.9-10.62-.01-6.24 4.2-10.61 10.29-10.61zm3.81 8a3.93 3.93 0 0 0-3.81-4.1 4.86 4.86 0 0 0-5 4.1zM173.77 13.07c5.8 0 9 4.25 9 9.62 0 .59-.12 1.86-.12 1.86h-14a5.83 5.83 0 0 0 6.07 5.45 9.25 9.25 0 0 0 5.69-2.26l2.1 3.5a12.33 12.33 0 0 1-8.15 3.06c-6.71 0-10.89-4.85-10.89-10.62 0-6.24 4.21-10.61 10.3-10.61zm3.81 8a3.94 3.94 0 0 0-3.81-4.1 4.86 4.86 0 0 0-5 4.1zM254.38 18.71a.78.78 0 0 0-.87-.88h-1.6v-4.29h4.66c1.78 0 2.66.84 2.66 2.27v.59a5.64 5.64 0 0 1-.08.88h.08a7.79 7.79 0 0 1 7.16-4.21c4.49 0 7.08 2.34 7.08 7.71v7.91a.79.79 0 0 0 .87.87h1.59v4.26h-4.81c-1.91 0-2.7-.8-2.7-2.7v-9.31c0-2.46-.64-4.13-3.19-4.13a5.55 5.55 0 0 0-5.44 4.13 8.52 8.52 0 0 0-.4 2.7v9.31h-5zM239.5 13.07c6.2 0 11.14 4.41 11.14 10.61s-4.94 10.62-11.14 10.62-11.09-4.38-11.09-10.62 4.93-10.61 11.09-10.61zm0 16.93a6 6 0 0 0 6.05-6.32 6 6 0 1 0-12.05 0 6 6 0 0 0 6 6.32zM226 23.68c0 6.28-3.5 10.62-9 10.62a7 7 0 0 1-6-2.87h-.08s.08.72.08 1.75v8.59h-5.05v-23.06a.78.78 0 0 0-.88-.88h-1.59v-4.29h4.45c1.84 0 2.59.76 2.59 1.79v.72h.08s1.67-3 6.28-3c5.34.02 9.12 4.19 9.12 10.63zm-10.1 6.32c3 0 5-2.5 5-6.36 0-4-2.35-6.28-5.09-6.28-3.38 0-5.05 3.1-5.05 6.24.05 4.53 2.51 6.4 5.14 6.4zM187.75 27.38s2.58 3 6 3c1.56 0 2.75-.64 2.75-2 0-2.86-10.7-2.82-10.7-9.38 0-4.06 3.66-5.92 7.88-5.92 2.74 0 7.11.91 7.11 4.21v2.11h-4.45v-1c0-.95-1.43-1.43-2.55-1.43-1.78 0-3 .64-3 1.83 0 3.18 10.78 2.55 10.78 9.3 0 3.82-3.38 6.21-7.8 6.21a11.1 11.1 0 0 1-8.42-3.62zM280.1 27.38s2.58 3 6 3c1.55 0 2.75-.64 2.75-2 0-2.86-10.7-2.82-10.7-9.38 0-4.06 3.66-5.92 7.87-5.92 2.75 0 7.12.91 7.12 4.21v2.11h-4.46v-1c0-.95-1.43-1.43-2.54-1.43-1.79 0-3 .64-3 1.83 0 3.18 10.77 2.55 10.77 9.3 0 3.82-3.38 6.21-7.79 6.21a11.14 11.14 0 0 1-8.43-3.62zM137.66 29.56c-1.39 0-4-.47-4-3.81v-8.19h4.61v-1.87c0-1.49-.67-2.15-2.15-2.15h-2.46v-5.54h-4.93v5.53h-2.73v4h2.63v8.82c0 6.8 5.6 7.64 8.43 7.64a9.29 9.29 0 0 0 1.55-.12v-4.38a5.32 5.32 0 0 1-.95.07zM90.22 5.09c6.92 0 10.3 3.58 10.3 3.58l-2.94 3.74a12.1 12.1 0 0 0-7.24-2.51c-4.9 0-9.07 3.86-9.07 9.59 0 6.16 4.21 9.94 9.27 9.94a10.21 10.21 0 0 0 7.15-2.94v-2.11a.77.77 0 0 0-.87-.87h-1.71v-4.42h4.57c1.91 0 2.71.8 2.71 2.66v12.06h-4.46v-2.55h-.08a12.34 12.34 0 0 1-8.31 3c-7.4 0-13.72-5.65-13.72-14.75a14.14 14.14 0 0 1 14.4-14.42zM141.43 5.57h10.06c5.17 0 8.79 3.18 8.79 8.51 0 5.09-3.5 7.2-4.69 7.44v.08a3.15 3.15 0 0 1 1.41 1.4l2.75 5.45c.43.83 1.11.91 2 .91h.51v4.42h-2.74c-2.11 0-3-.32-3.94-2.11l-3.62-7.12c-.59-1.12-1.19-1.31-2.66-1.31h-2.63v10.57h-5.21zm9.35 13.24c2.62 0 4.17-1.63 4.17-4.45s-1.55-4.36-4.09-4.36h-4.22v8.83z" fill="#183541"></path> <rect width="61.78" height="39.31" rx="2.64" ry="2.64" fill="#00adee"></rect> <path d="M61.19 1c-7.28 11.35-18.68 21.75-30.38 21.51a21.83 21.83 0 0 1-13.39-4.75 21.18 21.18 0 0 1-7.42-12.14h-1.3a2.81 2.81 0 0 0-2.8 3.22c0 .35.11.76.18 1.18a25 25 0 0 0 9.62 15.71 25.55 25.55 0 0 0 15.19 5.16c10.28 0 21.3-6.54 30.89-23.39v-4.86a2.57 2.57 0 0 0-.59-1.64z" fill="#fff"></path> <path d="M12.94 55.52h-4.23v2.67h5v2.07h-7.71v-11.16h7.69v2.08h-5v2.35h4.23zM47.65 60.26h-2.65l-4-6.95v6.95h-2.66v-11.16h2.66l4 6.9v-6.9h2.68zM81.42 51.18h-3.35v9.08h-2.69v-9.08h-3.28v-2.08h9.32zM113 55.52h-4.23v2.67h5v2.07h-7.68v-11.16h7.7v2.08h-5v2.35h4.21zM142.55 56.31h-1.46v3.95h-2.69v-11.16h4.39a4.93 4.93 0 0 1 3.1.88 3 3 0 0 1 1.11 2.49 3.68 3.68 0 0 1-.47 1.93 3.33 3.33 0 0 1-1.47 1.24l2.32 4.5v.12h-2.88zm-1.46-2.07h1.7a1.5 1.5 0 0 0 1.15-.4 1.83 1.83 0 0 0 0-2.26 1.52 1.52 0 0 0-1.15-.41h-1.7zM174.86 56.47v3.79h-2.69v-11.16h4.45a5.22 5.22 0 0 1 2.26.47 3.58 3.58 0 0 1 1.53 1.34 3.68 3.68 0 0 1 .54 2 3.22 3.22 0 0 1-1.17 2.6 4.81 4.81 0 0 1-3.21 1zm0-2.07h1.76a1.66 1.66 0 0 0 1.19-.4 1.45 1.45 0 0 0 .41-1.1 1.8 1.8 0 0 0-.42-1.25 1.47 1.47 0 0 0-1.15-.47h-1.79zM210.06 56.31h-1.46v3.95h-2.69v-11.16h4.39a5 5 0 0 1 3.11.88 3 3 0 0 1 1.11 2.49 3.59 3.59 0 0 1-.47 1.93 3.33 3.33 0 0 1-1.47 1.24l2.33 4.5v.12h-2.91zm-1.46-2.07h1.7a1.54 1.54 0 0 0 1.16-.4 1.61 1.61 0 0 0 .38-1.13 1.57 1.57 0 0 0-.39-1.13 1.52 1.52 0 0 0-1.15-.41h-1.7zM242.55 60.26h-2.68v-11.16h2.68zM273.7 57.29a1.13 1.13 0 0 0-.41-.92 5.09 5.09 0 0 0-1.47-.68 15.42 15.42 0 0 1-1.72-.69 3.27 3.27 0 0 1-2.17-2.93 2.6 2.6 0 0 1 .54-1.63 3.5 3.5 0 0 1 1.53-1.1 6 6 0 0 1 2.22-.39 5.11 5.11 0 0 1 2.16.43 3.32 3.32 0 0 1 1.48 1.22 3.13 3.13 0 0 1 .53 1.81h-2.68a1.36 1.36 0 0 0-.42-1.06 1.6 1.6 0 0 0-1.13-.37 1.75 1.75 0 0 0-1.13.32.93.93 0 0 0 0 1.58 5.8 5.8 0 0 0 1.61.72 10 10 0 0 1 1.9.8 3.19 3.19 0 0 1 1.81 2.88 2.72 2.72 0 0 1-1.1 2.29 4.91 4.91 0 0 1-3 .84 5.89 5.89 0 0 1-2.45-.49 3.67 3.67 0 0 1-1.66-1.33 3.48 3.48 0 0 1-.55-2h2.69a1.7 1.7 0 0 0 .47 1.32 2.2 2.2 0 0 0 1.5.43 1.76 1.76 0 0 0 1.06-.29 1 1 0 0 0 .39-.76zM308.22 55.52h-4.22v2.67h5v2.07h-7.7v-11.16h7.7v2.08h-5v2.35h4.23z" fill="#183541"></path> </svg> 