<?xml version="1.0" encoding="UTF-8"?> <svg xmlns="http://www.w3.org/2000/svg" width="122" height="37" viewBox="0 0 122 37" fill="none"> <path fill-rule="evenodd" clip-rule="evenodd" d="M109.352 24.5396L99.8073 12.7305L100.974 11.7876L110.518 23.5967L109.352 24.5396Z" fill="black"></path> <path fill-rule="evenodd" clip-rule="evenodd" d="M110.195 12.7305L100.65 24.5396L99.4837 23.5967L109.028 11.7876L110.195 12.7305Z" fill="black"></path> <path fill-rule="evenodd" clip-rule="evenodd" d="M36.1302 23.9712V12.2915H37.6302V23.9712H36.1302Z" fill="black"></path> <path fill-rule="evenodd" clip-rule="evenodd" d="M36.8801 6.47363C36.5621 6.47363 36.3036 6.74063 36.3036 7.05014C36.3036 7.36823 36.5707 7.62664 36.8801 7.62664C37.1982 7.62664 37.4567 7.35964 37.4567 7.05014C37.4567 6.75257 37.1777 6.47363 36.8801 6.47363ZM34.8036 7.05014C34.8036 5.93608 35.71 4.97363 36.8801 4.97363C38.0061 4.97363 38.9567 5.92414 38.9567 7.05014C38.9567 8.1642 38.0503 9.12664 36.8801 9.12664C35.7661 9.12664 34.8036 8.22032 34.8036 7.05014Z" fill="black"></path> <path fill-rule="evenodd" clip-rule="evenodd" d="M87.433 12.9156C88.4233 11.7762 89.9969 11.509 92.0109 11.509C94.1074 11.509 95.6579 11.7558 96.547 12.9468C96.9762 13.5218 97.191 14.2416 97.3077 15.0605C97.4245 15.8805 97.4522 16.8753 97.4522 18.0504C97.4522 20.6097 97.1643 22.3768 96.1921 23.4576C95.1876 24.5743 93.6468 24.7534 91.8492 24.7534C90.7898 24.7534 89.888 24.7081 89.1471 24.5364C88.3872 24.3603 87.7446 24.0393 87.2658 23.4562C86.8007 22.89 86.5579 22.1574 86.4221 21.2948C86.286 20.431 86.2461 19.3582 86.2461 18.0504C86.2461 15.7387 86.4766 14.016 87.433 12.9156ZM88.5651 13.8996C88.0171 14.5301 87.7461 15.703 87.7461 18.0504C87.7461 19.3469 87.7871 20.3206 87.9038 21.0613C88.0207 21.8033 88.2025 22.2334 88.425 22.5043C88.6337 22.7584 88.9415 22.949 89.4858 23.0751C90.0492 23.2057 90.8055 23.2534 91.8492 23.2534C93.6751 23.2534 94.5609 23.0281 95.0769 22.4544C95.6254 21.8447 95.9522 20.6353 95.9522 18.0504C95.9522 16.8798 95.9233 15.9778 95.8227 15.2721C95.722 14.5653 95.5587 14.1305 95.3449 13.8441C94.9479 13.3122 94.1527 13.009 92.0109 13.009C90.0131 13.009 89.0793 13.3081 88.5651 13.8996Z" fill="black"></path> <path fill-rule="evenodd" clip-rule="evenodd" d="M72.4958 5.46484H73.9958V12.79C74.4797 12.614 75.0698 12.4091 75.691 12.2147C76.8731 11.8448 78.2771 11.4768 79.2636 11.4768C79.9323 11.4768 80.5563 11.5509 81.1015 11.7856C81.6707 12.0306 82.1083 12.4309 82.4221 12.9941C82.7237 13.5354 82.8997 14.2065 83.0052 14.9935C83.1113 15.7852 83.1519 16.7435 83.1519 17.8887C83.1519 19.2456 83.0913 20.3508 82.9283 21.24C82.7653 22.1295 82.4892 22.8653 82.0115 23.4289C81.0388 24.5764 79.4789 24.7212 77.6135 24.7212C76.1536 24.7212 74.4103 24.5891 73.1672 24.4582L72.4958 24.3875V5.46484ZM73.9958 14.3901V23.0323C75.1164 23.1346 76.467 23.2212 77.6135 23.2212C79.5658 23.2212 80.4001 23.0101 80.8672 22.459C81.1094 22.1733 81.3146 21.7242 81.4529 20.9696C81.5912 20.2149 81.6519 19.2171 81.6519 17.8887C81.6519 16.769 81.6116 15.8873 81.5185 15.1927C81.4248 14.4934 81.2833 14.0322 81.1118 13.7242C80.9524 13.4381 80.7611 13.2722 80.5083 13.1634C80.2315 13.0442 79.8404 12.9768 79.2636 12.9768C78.5352 12.9768 77.3348 13.272 76.1389 13.6462C75.2987 13.9092 74.5149 14.1932 73.9958 14.3901Z" fill="black"></path> <path fill-rule="evenodd" clip-rule="evenodd" d="M42.6656 23.9712V12.2915H44.1656V23.9712H42.6656Z" fill="black"></path> <path fill-rule="evenodd" clip-rule="evenodd" d="M46.9568 13.6739C45.7251 14.0383 44.5005 14.4835 43.6894 14.8015L43.1418 13.4051C43.9808 13.0761 45.2474 12.6154 46.5313 12.2356C47.791 11.8629 49.1529 11.5415 50.1452 11.5415C51.147 11.5415 52.0605 11.7656 52.6574 12.5739C53.2015 13.3107 53.3541 14.3809 53.3541 15.6886V24.0036H51.8541V15.6886C51.8541 14.4081 51.6831 13.7797 51.4507 13.465C51.2711 13.2218 50.9552 13.0415 50.1452 13.0415C49.3904 13.0415 48.2125 13.3025 46.9568 13.6739Z" fill="black"></path> <path fill-rule="evenodd" clip-rule="evenodd" d="M24.7891 13.6544C23.5982 14.0263 22.4133 14.4793 21.5919 14.8014L21.0442 13.405C21.8729 13.08 23.0983 12.611 24.342 12.2226C25.5617 11.8417 26.8874 11.509 27.8859 11.509C28.8877 11.509 29.8012 11.7332 30.3981 12.5415C30.9422 13.2783 31.0947 14.3484 31.0947 15.6562V23.9711H29.5947V15.6562C29.5947 14.3756 29.4238 13.7472 29.1914 13.4325C29.0118 13.1893 28.6959 13.009 27.8859 13.009C27.1372 13.009 26.0041 13.2749 24.7891 13.6544Z" fill="black"></path> <path fill-rule="evenodd" clip-rule="evenodd" d="M11.7678 23.9712V12.2915H13.2678V23.9712H11.7678Z" fill="black"></path> <path fill-rule="evenodd" clip-rule="evenodd" d="M15.9401 13.6707C14.774 14.0344 13.6138 14.4791 12.7916 14.8015L12.244 13.4051C13.0719 13.0804 14.2735 12.6192 15.4935 12.2388C16.691 11.8653 17.9913 11.5415 18.9886 11.5415C19.9904 11.5415 20.9039 11.7656 21.5008 12.5739C22.0449 13.3107 22.1975 14.3809 22.1975 15.6886V24.0036H20.6975V15.6886C20.6975 14.4081 20.5265 13.7797 20.2941 13.465C20.1145 13.2218 19.7986 13.0415 18.9886 13.0415C18.2388 13.0415 17.1287 13.3001 15.9401 13.6707Z" fill="black"></path> <path fill-rule="evenodd" clip-rule="evenodd" d="M66.2191 23.9712V5.46484H67.7191V23.9712H66.2191Z" fill="black"></path> <path fill-rule="evenodd" clip-rule="evenodd" d="M58.2034 12.8013C59.1761 11.6538 60.736 11.509 62.6014 11.509C64.0519 11.509 65.7928 11.6075 67.0477 11.7396L66.8906 13.2314C65.6866 13.1046 63.998 13.009 62.6014 13.009C60.6491 13.009 59.8148 13.2201 59.3477 13.7712C59.1055 14.0569 58.9004 14.506 58.7621 15.2606C58.6238 16.0153 58.563 17.0131 58.563 18.3415C58.563 19.4612 58.6034 20.3429 58.6964 21.0375C58.7901 21.7368 58.9316 22.198 59.1032 22.506C59.2626 22.7921 59.4538 22.958 59.7066 23.0669C59.9834 23.186 60.3745 23.2534 60.9514 23.2534C61.6797 23.2534 62.8801 22.9582 64.076 22.584C65.2411 22.2194 66.2979 21.8141 66.6906 21.657L67.2477 23.0498C66.8316 23.2162 65.7368 23.636 64.524 24.0155C63.3418 24.3854 61.9378 24.7534 60.9514 24.7534C60.2826 24.7534 59.6586 24.6793 59.1134 24.4446C58.5443 24.1996 58.1066 23.7993 57.7928 23.2361C57.4912 22.6948 57.3152 22.0237 57.2097 21.2367C57.1036 20.445 57.063 19.4867 57.063 18.3415C57.063 16.9846 57.1237 15.8795 57.2866 14.9902C57.4497 14.1007 57.7257 13.3649 58.2034 12.8013Z" fill="black"></path> <path fill-rule="evenodd" clip-rule="evenodd" d="M117.344 1.75H109.676V0.25H117.344C118.819 0.25 120.041 0.406161 120.824 1.20758C121.603 2.00327 121.75 3.23486 121.75 4.72068V12.3238H120.25V4.72068C120.25 3.1976 120.058 2.56886 119.752 2.25643C119.452 1.94973 118.846 1.75 117.344 1.75Z" fill="#38A70D"></path> <path fill-rule="evenodd" clip-rule="evenodd" d="M1.75 23.9712V31.5743C1.75 33.0974 1.94236 33.7261 2.24795 34.0386C2.54794 34.3453 3.15385 34.545 4.65597 34.545H12.3238V36.045H4.65597C3.18155 36.045 1.95948 35.8888 1.17561 35.0874C0.39735 34.2917 0.25 33.0601 0.25 31.5743V23.9712H1.75Z" fill="#38A70D"></path> </svg> 